<svg width="83" height="8" viewBox="0 0 83 8" fill="none" xmlns="http://www.w3.org/2000/svg">
<path fill-rule="evenodd" clip-rule="evenodd" d="M4 8C6.20914 8 8 6.20914 8 4C8 1.79086 6.20914 0 4 0C1.79086 0 0 1.79086 0 4C0 6.20914 1.79086 8 4 8Z" fill="#363838"/>
<path fill-rule="evenodd" clip-rule="evenodd" d="M41.5 8C43.7091 8 45.5 6.20914 45.5 4C45.5 1.79086 43.7091 0 41.5 0C39.2909 0 37.5 1.79086 37.5 4C37.5 6.20914 39.2909 8 41.5 8Z" fill="#FFEF35"/>
<path fill-rule="evenodd" clip-rule="evenodd" d="M79 8C81.2091 8 83 6.20914 83 4C83 1.79086 81.2091 0 79 0C76.7909 0 75 1.79086 75 4C75 6.20914 76.7909 8 79 8Z" fill="#363838"/>
</svg>
